# AST/ASF file generated using VICON BodyLanguage
# -----------------------------------------------
:version 1.10
:name VICON
:units
  mass 1.0
  length 0.45
  angle deg
:documentation
   .ast/.asf automatically generated from VICON data using
   VICON BodyBuilder and BodyLanguage model FoxedUp or BRILLIANT.MOD
:root
   order TX TY TZ RX RY RZ
   axis XYZ
   position 0 0 0  
   orientation 0 0 0 
:bonedata
  begin
     id 1 
     name lhipjoint
     direction 0.635376 -0.686425 0.353719 
     length 2.47244 
     axis 0 0 0  XYZ
  end
  begin
     id 2 
     name lfemur
     direction 0.34202 -0.939693 0  
     length 7.25268  
     axis 0 0 20  XYZ
    dof rx ry rz
    limits (-160.0 20.0)
           (-70.0 70.0)
           (-60.0 70.0)
  end
  begin
     id 3 
     name ltibia
     direction 0.34202 -0.939693 0   
     length 7.6767   
     axis 0 0 20   XYZ
    dof rx
    limits (-10.0 170.0)
  end
  begin
     id 4 
     name lfoot
     direction 0.0803374 -0.220725 0.972022   
     length 2.22945   
     axis -90 7.62852e-016 20   XYZ
    dof rx rz
    limits (-45.0 90.0)
           (-70.0 20.0)
  end
  begin
     id 5 
     name ltoes
     direction 1.53579e-011 -4.21994e-011 1   
     length 1.11848   
     axis -90 7.62852e-016 20   XYZ
    dof rx
    limits (-90.0 20.0)
  end
  begin
     id 6 
     name rhipjoint
     direction -0.664428 -0.664335 0.342336   
     length 2.55466  
     axis 0 0 0  XYZ 
  end
  begin
     id 7 
     name rfemur
     direction -0.34202 -0.939693 0   
     length 6.83172   
     axis 0 0 -20   XYZ
    dof rx ry rz
    limits (-160.0 20.0)
           (-70.0 70.0)
           (-70.0 60.0)
  end
  begin
     id 8 
     name rtibia
     direction -0.34202 -0.939693 0   
     length 7.62692   
     axis 0 0 -20   XYZ
    dof rx
    limits (-10.0 170.0)
 end
 begin
     id 9 
     name rfoot
     direction -0.0949276 -0.260811 0.960711   
     length 2.19684  
     axis -90 -7.62852e-016 -20   XYZ
    dof rx rz
    limits (-45.0 90.0)
           (-20.0 70.0)
  end
  begin
     id 10 
     name rtoes
     direction -1.53543e-011 -4.2183e-011 1   
     length 1.09848   
     axis -90 -7.62852e-016 -20   XYZ
    dof rx
    limits (-90.0 20.0)
  end
  begin
     id 11 
     name lowerback
     direction 0.0118782 0.999815 -0.0151555   
     length 2.15772   
     axis 0 0 0   XYZ
    dof rx ry rz
    limits (-20.0 45.0)
           (-30.0 30.0)
           (-30.0 30.0)
  end
  begin
     id 12 
     name upperback
     direction 0.00130825 0.999065 0.0432113   
     length 2.14863   
     axis 0 0 0   XYZ
    dof rx ry rz
    limits (-20.0 45.0)
           (-30.0 30.0)
           (-30.0 30.0)
  end
  begin
     id 13 
     name thorax
     direction -0.00347005 0.998773 0.0494011   
     length 2.14936   
     axis 0 0 0   XYZ
    dof rx ry rz
    limits (-20.0 45.0)
           (-30.0 30.0)
           (-30.0 30.0)
  end
  begin
     id 14 
     name lowerneck
     direction -0.0262159 0.99424 0.103921   
     length 1.69373   
     axis 0 0 0   XYZ
    dof rx ry rz
    limits (-20.0 45.0)
           (-30.0 30.0)
           (-30.0 30.0)
  end
  begin
     id 15 
     name upperneck
     direction 0.0353511 0.977394 -0.20845   
     length 1.70857   
     axis 0 0 0   XYZ
    dof rx ry rz
    limits (-20.0 45.0)
           (-30.0 30.0)
           (-30.0 30.0)
  end
  begin
     id 16
     name head
     direction 0.0139214 0.996594 -0.0812836  
     length 1.72777  
     axis 0 0 0   XYZ
    dof rx ry rz
    limits (-20.0 45.0)
           (-30.0 30.0)
           (-30.0 30.0)
  end
  begin
     id 17 
     name lclavicle
     direction 0.841247 0.537205 -0.0609508  
     length 3.55371  
     axis 0 0 0   XYZ
    dof ry rz
    limits (-20.0 10.0)
           (0.0 20.0)
  end
  begin
     id 18 
     name lhumerus
     direction 1 -4.48964e-011 1.60116e-018   
     length 4.91377   
     axis -180 -30 -90   XYZ
    dof rx ry rz
    limits (-60.0 90.0)
           (-90.0 90.0)
           (-90.0 90.0)
  end
  begin
     id 19
     name lradius
     direction 1 -4.48989e-011 -8.93847e-027   
     length 3.00291   
     axis -180 -30 -90   XYZ
    dof rx
    limits (-10.0 170.0)
  end
  begin
     id 20
     name lwrist
     direction 1 -4.48932e-011 -7.31504e-027   
     length 1.50145   
     axis 5.74121e-015 90 90   XYZ
    dof ry
    limits (-180.0 0.0)
 end
  begin
     id 21 
     name lhand
     direction 1 -4.48971e-011 -1.46301e-026   
     length 0.450922   
     axis 9.33524e-015 90 90   XYZ
    dof rx rz
    limits (-90.0 90.0)
           (-45.0 45.0)
  end
  begin
     id 22 
     name lfingers
     direction 1 -4.49039e-011 -2.92602e-026   
     length 0.363545   
     axis 1.86705e-014 90 90   XYZ
    dof rx
    limits (0.0 90.0)
  end
  begin
     id 23
     name lthumb
     direction 0.707107 -6.34941e-011 0.707107   
     length 0.52198   
     axis -90 45 2.85299e-015   XYZ
    dof rx rz
    limits (-45.0 45.0)
           (-45.0 45.0)
  end
  begin
     id 24 
     name rclavicle
     direction -0.825079 0.56158 -0.0622297   
     length 3.39909  
     axis 0 0 0   XYZ 
    dof ry rz
    limits (-10.0 20.0)
           (-20.0 0.0)
  end
  begin
     id 25 
     name rhumerus
     direction -1 -4.48965e-011 1.61691e-027  
     length 4.86725   
     axis -180 30 90   XYZ
    dof rx ry rz
    limits (-90.0 60.0)
           (-90.0 90.0)
           (-90.0 90.0)
  end
  begin
     id 26 
     name rradius
     direction -1 -4.48964e-011 -2.25776e-027   
     length 3.17144   
     axis -180 30 90   XYZ
    dof rx
    limits (-10.0 170.0)
  end
  begin
     id 27 
     name rwrist
     direction -1 -4.48961e-011 -7.31504e-027   
     length 1.58572   
     axis 5.74121e-015 -90 -90   XYZ
    dof ry
    limits (-180.0 0.0)
  end
  begin
     id 28
     name rhand
     direction -1 -4.49013e-011 -1.46301e-026   
     length 0.419368   
     axis 9.33524e-015 -90 -90   XYZ
    dof rx rz
    limits (-90.0 90.0)
           (-45.0 45.0)
  end
  begin
     id 29
     name rfingers
     direction -1 -4.489e-011 -2.92602e-026   
     length 0.338105   
     axis 1.86705e-014 -90 -90   XYZ
    dof rx
    limits (0.0 90.0)
  end
  begin
     id 30
     name rthumb
     direction -0.707107 -6.35022e-011 0.707107   
     length 0.485453   
     axis -90 -45 -2.85299e-015   XYZ
    dof rx rz
    limits (-45.0 45.0)
           (-45.0 45.0)
  end
:hierarchy
  begin
    root lhipjoint rhipjoint lowerback
    lhipjoint lfemur
    lfemur ltibia
    ltibia lfoot
    lfoot ltoes
    rhipjoint rfemur
    rfemur rtibia
    rtibia rfoot
    rfoot rtoes
    lowerback upperback
    upperback thorax
    thorax lowerneck lclavicle rclavicle
    lowerneck upperneck
    upperneck head
    lclavicle lhumerus
    lhumerus lradius
    lradius lwrist
    lwrist lhand lthumb
    lhand lfingers
    rclavicle rhumerus
    rhumerus rradius
    rradius rwrist
    rwrist rhand rthumb
    rhand rfingers
  end

#!OML:ASF H:\Swim 2\Project 1\Capture day 1\Session 1\male.ASF
:FULLY-SPECIFIED
:DEGREES
862
root 1.67746 14.8276 11.0428 106.642 28.0444 10.2204
lowerback -12.2813 7.15807 22.0281
upperback -8.91426 7.84558 -8.39101
thorax 1.22263 3.45609 -20.2612
lowerneck -12.788 -1.70444 13.9841
upperneck 34.7356 -3.32681 -7.02714
head 13.4716 -0.357636 -5.72486
rclavicle 0 -7.4743e-014
rhumerus 72.0983 -27.5323 -21.6093
rradius 31.5788
rwrist -5.50543
rhand -21.6492 -2.95196
rfingers 7.12502
rthumb 4.74754 -32.8788
lclavicle 0 -7.4743e-014
lhumerus -514.764 -55.6651 528.58
lradius 48.6433
lwrist 59.0334
lhand -18.071 -6.5026
lfingers 7.12502
lthumb 8.20178 23.3182
rfemur -52.1414 4.59423 19.7428
rtibia 51.4591
rfoot 33.8756 5.16453
rtoes 23.293
lfemur -50.7712 2.84856 -28.7312
ltibia 48.0714
lfoot -17.2328 8.36188
ltoes -21.1912
863
root 1.73276 14.8214 11.04 106.568 27.9525 9.87276
lowerback -12.2472 7.17518 22.1176
upperback -8.93843 7.86693 -8.36282
thorax 1.19178 3.45791 -20.2759
lowerneck -12.8065 -1.61539 14.1953
upperneck 34.4574 -3.21363 -7.21819
head 13.3591 -0.328162 -5.80997
rclavicle 0 2.3059e-014
rhumerus 71.5464 -27.3872 -20.782
rradius 31.915
rwrist -5.71521
rhand -21.7294 -2.73294
rfingers 7.12502
rthumb 4.67007 -32.6615
lclavicle 0 2.3059e-014
lhumerus -515.789 -55.7365 528.485
lradius 48.2812
lwrist 58.8922
lhand -16.9638 -6.64636
lfingers 7.12502
lthumb 9.27027 23.1298
rfemur -51.6809 4.3041 19.6431
rtibia 52.1452
rfoot 33.593 5.23885
rtoes 23.2489
lfemur -51.3531 1.86665 -28.497
ltibia 46.0047
lfoot -17.3434 9.28362
ltoes -20.9492
864
root 1.78999 14.8164 11.0393 106.447 27.827 9.44685
lowerback -12.1843 7.18313 22.1818
upperback -8.96407 7.88517 -8.34552
thorax 1.14288 3.45641 -20.2954
lowerneck -12.8179 -1.51011 14.4187
upperneck 34.1776 -3.07872 -7.4149
head 13.2488 -0.2888 -5.89647
rclavicle 3.18055e-015 -3.65764e-014
rhumerus 71.0923 -27.2437 -20.1043
rradius 32.128
rwrist -5.73734
rhand -21.8358 -2.46842
rfingers 7.12502
rthumb 4.56735 -32.3992
lclavicle 3.18055e-015 -3.65764e-014
lhumerus -516.995 -55.8017 528.565
lradius 47.8451
lwrist 58.7755
lhand -15.9919 -6.78013
lfingers 7.12502
lthumb 10.208 22.9522
rfemur -51.2405 4.04104 19.4745
rtibia 52.7535
rfoot 33.3661 5.29831
rtoes 23.2657
lfemur -51.8302 0.699672 -28.0595
ltibia 43.9446
lfoot -17.4211 10.1692
ltoes -20.7024
865
root 1.84651 14.812 11.038 106.283 27.6671 8.94111
lowerback -12.1028 7.18424 22.2016
upperback -8.98795 7.90261 -8.33416
thorax 1.08325 3.45453 -20.3002
lowerneck -12.8234 -1.38654 14.6312
upperneck 33.9057 -2.92055 -7.59349
head 13.1467 -0.238046 -5.97122
rclavicle 6.99722e-014 -4.13472e-014
rhumerus 70.739 -27.1058 -19.5821
rradius 32.2234
rwrist -5.5558
rhand -21.9776 -2.18853
rfingers 7.12502
rthumb 4.43036 -32.1222
lclavicle 6.99722e-014 -4.13472e-014
lhumerus -518.372 -55.8697 528.832
lradius 47.3301
lwrist 58.8085
lhand -15.1369 -6.87566
lfingers 7.12502
lthumb 11.0327 22.8144
rfemur -50.8673 3.83302 19.2338
rtibia 53.3289
rfoot 33.2621 5.36896
rtoes 23.4503
lfemur -52.2368 -0.598198 -27.4438
ltibia 41.9877
lfoot -17.4763 10.9733
ltoes -20.4553
866
root 1.90042 14.8076 11.0341 106.078 27.4779 8.35721
lowerback -12.0122 7.18243 22.1675
upperback -9.00907 7.92302 -8.32442
thorax 1.01898 3.45541 -20.2769
lowerneck -12.8312 -1.24374 14.815
upperneck 33.6605 -2.74242 -7.72783
head 13.0634 -0.174961 -6.02252
rclavicle -3.49861e-014 -1.90833e-014
rhumerus 70.4723 -26.9786 -19.2048
rradius 32.2198
rwrist -5.16967
rhand -22.1265 -1.91299
rfingers 7.12502
rthumb 4.28666 -31.8496
lclavicle -3.49861e-014 -1.90833e-014
lhumerus -519.833 -55.9816 529.194
lradius 46.7223
lwrist 59.0465
lhand -14.3439 -6.89699
lfingers 7.12502
lthumb 11.7975 22.7507
rfemur -50.5945 3.70147 18.9284
rtibia 53.8984
rfoot 33.302 5.47141
rtoes 23.6442
lfemur -52.6025 -1.91578 -26.7217
ltibia 40.2271
lfoot -17.4789 11.7318
ltoes -20.1707
867
root 1.95057 14.8026 11.0273 105.835 27.2745 7.71269
lowerback -11.9137 7.17753 22.0923
upperback -9.02314 7.94393 -8.31134
thorax 0.954269 3.45828 -20.2266
lowerneck -12.8279 -1.08767 14.9633
upperneck 33.4272 -2.54773 -7.81985
head 12.9887 -0.102851 -6.04897
rclavicle 6.04305e-014 1.74931e-014
rhumerus 70.2709 -26.8585 -18.9569
rradius 32.1474
rwrist -4.62165
rhand -22.2913 -1.67572
rfingers 7.12502
rthumb 4.12747 -31.6155
lclavicle 6.04305e-014 1.74931e-014
lhumerus -521.33 -56.1736 529.591
lradius 46.023
lwrist 59.5381
lhand -13.5982 -6.8115
lfingers 7.12502
lthumb 12.5165 22.7936
rfemur -50.4283 3.64161 18.5867
rtibia 54.458
rfoot 33.522 5.60307
rtoes 23.857
lfemur -52.9369 -3.10914 -26.0004
ltibia 38.7333
lfoot -17.4372 12.3924
ltoes -19.8694
868
root 1.99587 14.7965 11.0168 105.559 27.0641 7.02389
lowerback -11.8107 7.16999 21.9828
upperback -9.03107 7.96454 -8.29598
thorax 0.890261 3.46264 -20.1546
lowerneck -12.8287 -0.91932 15.0604
upperneck 33.2375 -2.34257 -7.8471
head 12.939 -0.021523 -6.04203
rclavicle -4.77083e-014 -6.36111e-014
rhumerus 70.1013 -26.7427 -18.8074
rradius 32.0342
rwrist -3.95512
rhand -22.4421 -1.48633
rfingers 7.12502
rthumb 3.98183 -31.4289
lclavicle -4.77083e-014 -6.36111e-014
lhumerus -522.854 -56.4721 529.998
lradius 45.2381
lwrist 60.3175
lhand -12.8542 -6.57708
lfingers 7.12502
lthumb 13.2337 22.9828
rfemur -50.376 3.63958 18.2285
rtibia 54.9904
rfoot 33.9406 5.75997
rtoes 23.9819
lfemur -53.2304 -4.05737 -25.3898
ltibia 37.5482
lfoot -17.4316 12.8367
ltoes -19.5133
869
root 2.03695 14.7894 11.0034 105.249 26.8748 6.32216
lowerback -11.6922 7.15639 21.8822
upperback -9.0292 7.97811 -8.27487
thorax 0.824994 3.46365 -20.0841
lowerneck -12.8322 -0.742978 15.113
upperneck 33.0934 -2.13101 -7.81919
head 12.913 0.0669415 -6.0072
rclavicle 1.59028e-014 -7.59357e-014
rhumerus 69.9398 -26.626 -18.7339
rradius 31.8996
rwrist -3.20207
rhand -22.576 -1.35984
rfingers 7.12502
rthumb 3.85258 -31.3048
lclavicle 1.59028e-014 -7.59357e-014
lhumerus -524.419 -56.8949 530.401
lradius 44.3875
lwrist 61.3634
lhand -12.1318 -6.18315
lfingers 7.12502
lthumb 13.93 23.3302
rfemur -50.4105 3.65391 17.9047
rtibia 55.4591
rfoot 34.5646 5.91636
rtoes 24.0586
lfemur -53.4612 -4.65664 -24.9831
ltibia 36.6928
lfoot -17.4359 13.057
ltoes -19.2535
870
root 2.07428 14.7813 10.9878 104.912 26.7126 5.62919
lowerback -11.5555 7.13558 21.8066
upperback -9.0177 7.98239 -8.24998
thorax 0.757608 3.45952 -20.0279
lowerneck -12.8407 -0.567147 15.1431
upperneck 32.9892 -1.91635 -7.78225
head 12.906 0.157779 -5.96686
rclavicle 1.27222e-014 -1.19668e-013
rhumerus 69.7703 -26.5074 -18.7175
rradius 31.7518
rwrist -2.39023
rhand -22.6721 -1.26908
rfingers 7.12502
rthumb 3.75979 -31.2157
lclavicle 1.27222e-014 -1.19668e-013
lhumerus -526.097 -57.4246 530.87
lradius 43.4911
lwrist 62.6361
lhand -11.5134 -5.61868
lfingers 7.12502
lthumb 14.5258 23.8528
rfemur -50.5197 3.65971 17.6312
rtibia 55.8304
rfoot 35.3621 6.05701
rtoes 24.0409
lfemur -53.6121 -4.88831 -24.8238
ltibia 36.1694
lfoot -17.4305 13.0506
ltoes -19.1128
871
root 2.10753 14.7724 10.9694 104.566 26.5787 4.9641
lowerback -11.4115 7.10805 21.7552
upperback -9.00072 7.97619 -8.22287
thorax 0.689023 3.44943 -19.9864
lowerneck -12.8442 -0.399483 15.1659
upperneck 32.9034 -1.70766 -7.75005
head 12.9046 0.245939 -5.92862
rclavicle -4.6118e-014 -1.15295e-014
rhumerus 69.583 -26.3901 -18.7388
rradius 31.5899
rwrist -1.51478
rhand -22.702 -1.17625
rfingers 7.12502
rthumb 3.73092 -31.1233
lclavicle -4.6118e-014 -1.15295e-014
lhumerus -528.023 -58.0072 531.55
lradius 42.5678
lwrist 64.1346
lhand -10.9468 -4.88694
lfingers 7.12502
lthumb 15.0718 24.5444
rfemur -50.7125 3.6357 17.415
rtibia 56.0789
rfoot 36.2695 6.18105
rtoes 24.0022
lfemur -53.6874 -4.8096 -24.8864
ltibia 35.9693
lfoot -17.4371 12.8125
ltoes -19.0823
